<?xml version="1.0" encoding="UTF-8"?>
<svg width="1920px" height="540px" viewBox="0 0 1920 540" version="1.1" xmlns="http://www.w3.org/2000/svg" xmlns:xlink="http://www.w3.org/1999/xlink">
    <style>
        @keyframes wait {
            0% {
                opacity: 0;
            }
            100% {
                opacity: 1;
            }
        }

        @keyframes dash {
            to {
              stroke-dashoffset: 0;
            }
          }

        .background {
            opacity: 0;
            animation: wait 2s forwards;
        }

        .line {
            stroke-dasharray: 1000;
            stroke-dashoffset: 1000;
            animation: dash 6s linear forwards;
            animation-delay: 1.5s;
        }
    </style>
    <g class="background" id="1920*1080--1920*1080" stroke="none" stroke-width="1" fill="none" fill-rule="evenodd">
        <rect id="1920*1080--Rectangle" fill="#E0234E" x="0" y="0" width="1920" height="540"></rect>
        <path class="line" d="M276.341797,289.400391 C283.109375,289.400391 288.910156,285.708984 288.822266,278.824219 C288.822266,273.873047 285.833984,270.474609 281.380859,269.039062 C284.193359,267.251953 285.951172,264.351562 285.951172,260.572266 C286.039062,253.716797 280.267578,249.996094 273.441406,250.025219 L236,250.025219 L236,289.400391 L276.341797,289.400391 Z M269.134766,264.673828 L251.351562,264.673828 L251.351562,259.371094 L269.134766,259.371094 C270.453125,259.371094 271.537109,260.689453 271.537109,262.007812 C271.537109,263.326172 270.453125,264.673828 269.134766,264.673828 Z M272.005859,280.025391 L251.351562,280.025391 L251.351562,274.751953 L272.005859,274.751953 C273.324219,274.751953 274.408203,276.070312 274.408203,277.388672 C274.408203,278.707031 273.324219,280.025391 272.005859,280.025391 Z M339.679748,289.400391 L339.679748,279.292969 L308.947326,279.292969 L308.947326,274.253906 L339.679748,274.253906 L339.679748,265.142578 L308.947326,265.142578 L308.947326,260.103516 L339.679748,260.103516 L339.679748,250.025391 L293.595764,250.025391 L293.595764,289.400391 L339.679748,289.400391 Z M358.808715,289.400391 L361.914184,282.662109 L381.630981,282.662109 L384.73645,289.400391 L402.021606,289.400391 L380.898559,250.025391 L362.646606,250.025391 L341.523559,289.400391 L358.808715,289.400391 Z M377.177856,273.052734 L366.367309,273.052734 L371.787231,261.421875 L377.177856,273.052734 Z M427.039245,290.308594 C441.80487,290.279297 453.99237,286.001953 453.933987,271.119141 L453.933987,249.966797 L438.552917,249.966797 L438.552917,270.152344 C438.640807,276.626953 433.308776,277.740234 427.039245,277.828125 C420.740417,277.740234 415.437682,276.626953 415.496276,270.152344 L415.496276,249.966797 L400.144503,249.966797 L400.144503,271.119141 C400.08612,286.001953 412.27362,290.279297 427.039245,290.308594 Z M493.277587,289.400391 L493.277587,262.505859 L511.52954,262.505859 L511.52954,250.025391 L459.674071,250.025391 L459.674071,262.505859 L477.926025,262.505859 L477.926025,289.400391 L493.277587,289.400391 Z M532.679992,289.341797 L532.679992,249.966797 L517.328429,249.966797 L517.328429,289.341797 L532.679992,289.341797 Z M556.848021,289.400391 L556.848021,278.824219 L585.676146,278.824219 L585.676146,267.310547 L556.848021,267.310547 L556.848021,262.505859 L589.514037,262.505859 L589.514037,250.025391 L541.496459,250.025391 L541.496459,289.400391 L556.848021,289.400391 Z M621.533629,290.308594 C636.299254,290.279297 648.486754,286.001953 648.428371,271.119141 L648.428371,249.966797 L633.047301,249.966797 L633.047301,270.152344 C633.135191,276.626953 627.80316,277.740234 621.533629,277.828125 C615.234801,277.740234 609.932066,276.626953 609.99066,270.152344 L609.99066,249.966797 L594.638887,249.966797 L594.638887,271.119141 C594.580504,286.001953 606.768004,290.279297 621.533629,290.308594 Z M702.098143,289.341797 L702.098143,276.861328 L671.365721,276.861328 L671.365721,249.966797 L656.014159,249.966797 L656.014159,289.341797 L702.098143,289.341797 Z M747.154844,275.425781 L747.154844,263.912109 L703.941954,263.912109 L703.941954,275.425781 L747.154844,275.425781 Z M764.350218,289.341797 L764.350218,265.289062 L785.502561,289.341797 L802.787718,289.341797 L802.787718,249.966797 L787.406858,249.966797 L787.406858,270.826172 L770.121702,249.966797 L748.998655,249.966797 L748.998655,289.341797 L764.350218,289.341797 Z M858.479185,289.400391 L858.479185,279.292969 L827.746763,279.292969 L827.746763,274.253906 L858.479185,274.253906 L858.479185,265.142578 L827.746763,265.142578 L827.746763,260.103516 L858.479185,260.103516 L858.479185,250.025391 L812.3952,250.025391 L812.3952,289.400391 L858.479185,289.400391 Z M890.00073,290.308594 C903.828855,290.308594 916.719522,287.642578 916.719522,276.392578 C916.748777,266.519531 901.309324,265.757812 890.322996,265.201172 C884.141355,264.908203 879.365964,264.673828 879.365964,262.945312 C879.365964,259.810547 885.225339,259.107422 890.00073,259.107422 C894.805418,259.107422 898.877683,259.839844 900.635496,262.945312 L916.719522,262.945312 C915.254636,250.640625 903.799558,249.087891 890.00073,249 C876.172605,249 863.281938,251.695312 863.281938,262.945312 C863.252683,272.789062 878.692136,273.550781 889.678464,274.107422 C895.860105,274.400391 900.635496,274.664062 900.635496,276.392578 C900.635496,279.439453 894.776121,280.230469 890.00073,280.230469 C885.196043,280.230469 881.123777,279.439453 879.365964,276.392578 L863.281938,276.392578 C864.746824,288.609375 876.201902,290.279297 890.00073,290.308594 Z M951.463681,289.400391 L951.463681,262.505859 L969.715635,262.505859 L969.715635,250.025391 L917.860166,250.025391 L917.860166,262.505859 L936.112119,262.505859 L936.112119,289.400391 L951.463681,289.400391 Z M987.057492,290.308594 C1001.9403,290.308594 1013.95202,285.972656 1013.95202,271.119141 L1013.95202,249.996094 L998.600461,249.996094 L998.600461,270.152344 C998.688352,276.626953 993.35632,277.740234 987.057492,277.828125 C980.884415,277.741587 975.620214,276.660965 975.543596,270.447381 L975.54382,266.314453 L960.192047,266.314453 L960.192047,271.119141 C960.133664,286.001953 972.26257,290.279297 987.057492,290.308594 Z M1045.70794,290.308594 C1059.53607,290.308594 1072.42674,287.642578 1072.42674,276.392578 C1072.45599,266.519531 1057.01654,265.757812 1046.03021,265.201172 C1039.84857,264.908203 1035.07318,264.673828 1035.07318,262.945312 C1035.07318,259.810547 1040.93255,259.107422 1045.70794,259.107422 C1050.51263,259.107422 1054.5849,259.839844 1056.34271,262.945312 L1072.42674,262.945312 C1070.96185,250.640625 1059.50677,249.087891 1045.70794,249 C1031.87982,249 1018.98915,251.695312 1018.98915,262.945312 C1018.9599,272.789062 1034.39935,273.550781 1045.38568,274.107422 C1051.56732,274.400391 1056.34271,274.664062 1056.34271,276.392578 C1056.34271,279.439453 1050.48333,280.230469 1045.70794,280.230469 C1040.90326,280.230469 1036.83099,279.439453 1035.07318,276.392578 L1018.98915,276.392578 C1020.45404,288.609375 1031.90912,290.279297 1045.70794,290.308594 Z M1117.4834,275.425781 L1117.4834,263.912109 L1074.2705,263.912109 L1074.2705,275.425781 L1117.4834,275.425781 Z M1159.669,289.400391 C1166.43658,289.400391 1172.23736,285.708984 1172.14947,278.824219 C1172.14947,273.873047 1169.16119,270.474609 1164.70807,269.039062 C1167.52057,267.251953 1169.27838,264.351562 1169.27838,260.572266 C1169.36627,253.716797 1163.59478,249.996094 1156.76861,250.025219 L1119.32721,250.025219 L1119.32721,289.400391 L1159.669,289.400391 Z M1152.46197,264.673828 L1134.67877,264.673828 L1134.67877,259.371094 L1152.46197,259.371094 C1153.78033,259.371094 1154.86432,260.689453 1154.86432,262.007812 C1154.86432,263.326172 1153.78033,264.673828 1152.46197,264.673828 Z M1155.33307,280.025391 L1134.67877,280.025391 L1134.67877,274.751953 L1155.33307,274.751953 C1156.65142,274.751953 1157.73541,276.070312 1157.73541,277.388672 C1157.73541,278.707031 1156.65142,280.025391 1155.33307,280.025391 Z M1202.44055,290.308594 C1217.23547,290.279297 1229.36438,285.972656 1229.30599,271.089844 L1229.30599,268.21875 C1229.30599,253.335938 1217.26477,249 1202.44055,249 C1187.61633,249.029297 1175.48742,253.306641 1175.54581,268.21875 L1175.54581,271.089844 C1175.48742,285.972656 1187.61633,290.279297 1202.44055,290.308594 Z M1202.44055,277.828125 C1196.23863,277.741587 1190.97398,276.604161 1190.89736,270.416794 L1190.89758,269.15625 C1190.80969,262.740234 1196.14172,261.568359 1202.44055,261.480469 C1208.61363,261.567007 1213.87783,262.704433 1213.95444,268.863835 L1213.95422,270.123047 C1214.04211,276.568359 1208.71008,277.740234 1202.44055,277.828125 Z M1249.8703,289.341797 L1249.8703,249.966797 L1234.51873,249.966797 L1234.51873,289.341797 L1249.8703,289.341797 Z M1304.77075,289.341797 L1304.77075,276.861328 L1274.03833,276.861328 L1274.03833,249.966797 L1258.68676,249.966797 L1258.68676,289.341797 L1304.77075,289.341797 Z M1356.71222,289.400391 L1356.71222,279.292969 L1325.97979,279.292969 L1325.97979,274.253906 L1356.71222,274.253906 L1356.71222,265.142578 L1325.97979,265.142578 L1325.97979,260.103516 L1356.71222,260.103516 L1356.71222,250.025391 L1310.62823,250.025391 L1310.62823,289.400391 L1356.71222,289.400391 Z M1380.88024,289.371094 L1380.88024,279.761719 L1394.59118,279.761719 L1402.00329,289.371094 L1418.35095,289.371094 L1409.76696,278.326172 C1412.34509,277.125 1414.42517,275.308594 1415.9779,272.935547 C1417.55993,270.533203 1418.35095,267.837891 1418.35095,264.878906 C1418.46667,256.836182 1411.75439,250.079063 1403.77187,249.996028 L1365.52868,249.996028 L1365.52868,289.371094 L1380.88024,289.371094 Z M1399.60095,268.21875 L1380.88024,268.21875 L1380.88024,261.509766 L1399.60095,261.509766 C1401.47595,261.509766 1402.97009,263.003906 1402.97009,264.878906 C1402.97009,265.787109 1402.64782,266.578125 1401.97399,267.251953 C1401.32946,267.896484 1400.53845,268.21875 1399.60095,268.21875 Z M1439.12054,289.400391 L1439.12054,279.791016 L1461.70843,279.791016 C1469.82366,279.908203 1476.70843,273.023438 1476.59124,264.908203 C1476.70697,256.865479 1469.99469,250.10836 1462.01216,250.025325 L1423.76898,250.025325 L1423.76898,289.400391 L1439.12054,289.400391 Z M1457.87054,268.248047 L1439.12054,268.248047 L1439.12054,261.539062 L1457.87054,261.539062 C1458.77874,261.539062 1459.56976,261.861328 1460.21429,262.535156 C1460.88812,263.179688 1461.21038,263.970703 1461.21038,264.908203 C1461.21038,265.816406 1460.88812,266.607422 1460.21429,267.28125 C1459.56976,267.925781 1458.77874,268.248047 1457.87054,268.248047 Z M1527.50732,289.341797 L1527.50732,276.861328 L1496.7749,276.861328 L1496.7749,249.966797 L1481.42333,249.966797 L1481.42333,289.341797 L1527.50732,289.341797 Z M1546.63629,289.400391 L1549.74176,282.662109 L1569.45855,282.662109 L1572.56402,289.400391 L1589.84918,289.400391 L1568.72613,250.025391 L1550.47418,250.025391 L1529.35113,289.400391 L1546.63629,289.400391 Z M1565.00543,273.052734 L1554.19488,273.052734 L1559.6148,261.421875 L1565.00543,273.052734 Z M1613.92932,289.400391 L1613.92932,262.505859 L1632.18127,262.505859 L1632.18127,250.025391 L1580.3258,250.025391 L1580.3258,262.505859 L1598.57775,262.505859 L1598.57775,289.400391 L1613.92932,289.400391 Z M1684.06414,289.400391 L1684.06414,279.292969 L1653.33172,279.292969 L1653.33172,274.253906 L1684.06414,274.253906 L1684.06414,265.142578 L1653.33172,265.142578 L1653.33172,260.103516 L1684.06414,260.103516 L1684.06414,250.025391 L1637.98016,250.025391 L1637.98016,289.400391 L1684.06414,289.400391 Z" id="1920*1080--beautiful-nestjs-boilerplate" stroke="#FFFFFF" stroke-width="3" fill-rule="nonzero"></path>
    </g>
</svg>